<svg xmlns="http://www.w3.org/2000/svg" xmlns:xlink="http://www.w3.org/1999/xlink" width="1920" zoomAndPan="magnify" viewBox="0 0 1440 809.999993" height="1080" preserveAspectRatio="xMidYMid meet" version="1.0"><defs><clipPath id="e12c684e72"><path d="M 504 755 L 1284.585938 755 L 1284.585938 771.714844 L 504 771.714844 Z M 504 755 " clip-rule="nonzero"/></clipPath><clipPath id="1187f0372b"><path d="M 207.410156 709.441406 L 257 709.441406 L 257 810 L 207.410156 810 Z M 207.410156 709.441406 " clip-rule="nonzero"/></clipPath></defs><rect x="-144" width="1728" fill="#ffffff" y="-80.999999" height="971.999992" fill-opacity="1"/><rect x="-144" width="1728" fill="#ffffff" y="-80.999999" height="971.999992" fill-opacity="1"/><g clip-path="url(#e12c684e72)"><path fill="#bed0db" d="M 894.664062 771.421875 C 679.316406 771.421875 504.738281 767.789062 504.738281 763.308594 C 504.738281 758.820312 679.316406 755.1875 894.664062 755.1875 C 1110.011719 755.1875 1284.589844 758.820312 1284.589844 763.308594 C 1284.589844 767.789062 1110.011719 771.421875 894.664062 771.421875 " fill-opacity="1" fill-rule="nonzero"/></g><path fill="#535387" d="M 1013.773438 483.769531 C 1013.773438 586.796875 930.25 670.320312 827.199219 670.320312 L 827.199219 594.914062 C 888.59375 594.914062 938.363281 545.152344 938.363281 483.769531 C 938.363281 422.382812 888.59375 372.617188 827.199219 372.617188 L 827.199219 297.207031 C 930.25 297.207031 1013.773438 380.738281 1013.773438 483.769531 " fill-opacity="1" fill-rule="nonzero"/><path fill="#535387" d="M 819.476562 598.601562 L 621.941406 598.601562 L 621.941406 576.523438 L 819.476562 576.523438 L 819.476562 598.601562 " fill-opacity="1" fill-rule="nonzero"/><path fill="#d3eff4" d="M 810.277344 567.230469 L 605.574219 567.230469 L 605.574219 576.523438 L 810.277344 576.523438 L 810.277344 567.230469 " fill-opacity="1" fill-rule="nonzero"/><path fill="#666691" d="M 886.871094 551.546875 L 795.65625 551.546875 C 795.65625 551.546875 802.421875 579.9375 804.84375 613.691406 C 809.101562 673.058594 761.871094 723.496094 702.339844 723.496094 L 617.292969 723.496094 C 596.113281 723.496094 578.949219 740.664062 578.949219 761.839844 L 962.980469 761.839844 C 962.980469 761.839844 894.425781 660.175781 886.871094 551.546875 " fill-opacity="1" fill-rule="nonzero"/><path fill="#535387" d="M 808.289062 440.03125 L 717.515625 392.65625 L 726.261719 356.292969 L 833.121094 412.058594 L 808.289062 440.03125 " fill-opacity="1" fill-rule="nonzero"/><path fill="#535387" d="M 913.675781 273.148438 L 794.175781 210.785156 L 819.136719 203.34375 L 905.507812 248.421875 L 913.675781 273.148438 " fill-opacity="1" fill-rule="nonzero"/><path fill="#666691" d="M 831.042969 431.441406 L 711.542969 369.078125 L 794.175781 210.785156 L 913.675781 273.148438 L 831.042969 431.441406 " fill-opacity="1" fill-rule="nonzero"/><path fill="#47477f" d="M 791.339844 431.191406 L 739.632812 404.203125 L 717.515625 392.65625 L 694.292969 437.140625 L 716.414062 448.691406 L 768.117188 475.667969 L 785.0625 484.515625 L 808.289062 440.03125 L 791.339844 431.191406 " fill-opacity="1" fill-rule="nonzero"/><path fill="#47477f" d="M 930.660156 170.59375 L 907.679688 158.597656 L 856.453125 131.859375 L 819.136719 203.34375 L 870.363281 230.082031 L 893.34375 242.070312 L 905.507812 248.421875 L 942.824219 176.9375 L 930.660156 170.59375 " fill-opacity="1" fill-rule="nonzero"/><path fill="#535387" d="M 949.617188 180.484375 L 849.65625 128.316406 L 859.253906 109.933594 L 959.214844 162.101562 L 949.617188 180.484375 " fill-opacity="1" fill-rule="nonzero"/><path fill="#47477f" d="M 878.710938 613.753906 C 878.710938 627.4375 867.617188 638.535156 853.925781 638.535156 C 840.238281 638.535156 829.140625 627.4375 829.140625 613.753906 C 829.140625 600.066406 840.238281 588.96875 853.925781 588.96875 C 867.617188 588.96875 878.710938 600.066406 878.710938 613.753906 " fill-opacity="1" fill-rule="nonzero"/><path fill="#ffffff" d="M 870.960938 613.753906 C 870.960938 623.160156 863.335938 630.789062 853.925781 630.789062 C 844.511719 630.789062 836.886719 623.160156 836.886719 613.753906 C 836.886719 604.34375 844.511719 596.714844 853.925781 596.714844 C 863.335938 596.714844 870.960938 604.34375 870.960938 613.753906 " fill-opacity="1" fill-rule="nonzero"/><path fill="#353570" d="M 904.597656 338.445312 C 904.597656 359.8125 887.269531 377.132812 865.898438 377.132812 C 844.527344 377.132812 827.199219 359.8125 827.199219 338.445312 C 827.199219 317.074219 844.527344 299.75 865.898438 299.75 C 887.269531 299.75 904.597656 317.074219 904.597656 338.445312 " fill-opacity="1" fill-rule="nonzero"/><path fill="#ffffff" d="M 892.5 338.445312 C 892.5 353.132812 880.589844 365.042969 865.898438 365.042969 C 851.207031 365.042969 839.296875 353.132812 839.296875 338.445312 C 839.296875 323.753906 851.207031 311.84375 865.898438 311.84375 C 880.589844 311.84375 892.5 323.753906 892.5 338.445312 " fill-opacity="1" fill-rule="nonzero"/><path fill="#6d6daa" d="M 965.6875 399.070312 C 972.285156 409.957031 976.78125 422.273438 980.371094 434.34375 C 988.84375 462.84375 990.757812 493.277344 983.902344 522.300781 C 978.75 544.117188 968.886719 564.214844 955.71875 582.546875 C 950.691406 589.546875 962.519531 596.167969 967.507812 589.222656 C 1006.460938 535 1011.082031 466.523438 984.480469 406.375 C 982.382812 401.628906 980.179688 396.855469 977.476562 392.394531 C 973.03125 385.066406 961.222656 391.710938 965.6875 399.070312 " fill-opacity="1" fill-rule="nonzero"/><path fill="#ffa59d" d="M 870.335938 302.851562 C 874.265625 307.464844 878.796875 311.566406 883.78125 315.019531 C 886.46875 316.902344 889.511719 318.652344 892.789062 318.492188 C 895.242188 318.394531 897.496094 317.234375 899.695312 316.117188 C 903.09375 314.335938 913.476562 309.410156 916.890625 307.644531 L 913.988281 292.738281 C 913.847656 292.703125 913.753906 292.6875 913.628906 292.644531 C 908.097656 287.5 895.125 283.703125 888.335938 280.558594 C 887.703125 280.285156 886.976562 280.738281 886.960938 281.425781 C 886.878906 285.113281 888.410156 286.683594 895.164062 291.726562 C 887.292969 293.160156 879.421875 294.574219 871.535156 296.003906 C 870.710938 296.140625 869.828125 296.316406 869.195312 296.90625 C 867.53125 298.414062 868.886719 301.167969 870.335938 302.851562 " fill-opacity="1" fill-rule="nonzero"/><path fill="#16162b" d="M 1139.109375 741.628906 C 1147.332031 737.71875 1148.5625 730.167969 1152.203125 722.945312 C 1152.445312 722.457031 1154.046875 715.730469 1154.074219 714.910156 C 1154.203125 711.375 1164.277344 701.730469 1168.667969 708.972656 C 1177.332031 723.25 1189.222656 700.683594 1188.542969 706.757812 C 1186.527344 724.824219 1192.339844 753.3125 1185.824219 755.453125 C 1171.949219 760.015625 1107.5625 766.582031 1106.519531 759.601562 C 1105.898438 755.410156 1124.882812 748.394531 1139.109375 741.628906 " fill-opacity="1" fill-rule="nonzero"/><path fill="#2a437a" d="M 1191.144531 717.265625 C 1182.625 720.402344 1173.152344 721.96875 1163.195312 721.59375 C 1158.707031 721.429688 1154.367188 720.875 1150.164062 719.96875 C 1146.277344 704.417969 1141.96875 683.832031 1137.785156 657.160156 C 1136.070312 646.382812 1134.425781 634.59375 1132.789062 621.730469 C 1127.542969 579.871094 1121.734375 526.59375 1118.625 459.460938 C 1117.085938 426.132812 1118.238281 392.679688 1122.675781 359.609375 C 1123.839844 350.921875 1125.253906 341.964844 1126.960938 333.140625 L 1190.351562 334.140625 C 1189.519531 338.964844 1188.492188 345.605469 1187.351562 354.226562 C 1187.078125 356.367188 1186.796875 358.667969 1186.507812 361.101562 C 1185.808594 366.9375 1185.097656 373.523438 1184.4375 380.859375 C 1182.652344 399.847656 1181.035156 423.890625 1180.15625 453.46875 C 1178.855469 496.15625 1180.640625 550.390625 1184.136719 617.199219 C 1184.730469 628.363281 1185.40625 639.886719 1186.167969 651.769531 C 1187.507812 672.472656 1189.136719 694.324219 1191.144531 717.265625 " fill-opacity="1" fill-rule="nonzero"/><path fill="#16162b" d="M 1191.445312 741.628906 C 1199.671875 737.71875 1197.945312 730.167969 1201.582031 722.945312 C 1201.832031 722.457031 1200.476562 715.730469 1200.507812 714.910156 C 1200.636719 711.375 1210.710938 701.730469 1215.105469 708.972656 C 1223.765625 723.25 1235.652344 700.683594 1234.976562 706.757812 C 1232.957031 724.824219 1244.679688 753.3125 1238.164062 755.453125 C 1224.289062 760.015625 1159.902344 766.582031 1158.863281 759.601562 C 1158.234375 755.410156 1177.222656 748.394531 1191.445312 741.628906 " fill-opacity="1" fill-rule="nonzero"/><path fill="#374d88" d="M 1237.332031 715.816406 C 1228.933594 719.265625 1219.527344 721.183594 1209.5625 721.183594 C 1205.074219 721.183594 1200.710938 720.796875 1196.480469 720.046875 C 1192.019531 704.652344 1186.9375 684.242188 1181.765625 657.746094 C 1179.648438 647.039062 1177.5625 635.316406 1175.449219 622.523438 C 1167.503906 573.960938 1158.226562 509.902344 1152.625 426.28125 C 1152.625 426.28125 1151.941406 378.757812 1158.847656 334.359375 L 1222.230469 332.988281 C 1221.578125 337.839844 1220.792969 344.511719 1219.984375 353.167969 C 1219.785156 355.316406 1219.589844 357.628906 1219.398438 360.070312 C 1218.90625 365.929688 1218.449219 372.539062 1218.0625 379.894531 C 1216.988281 398.9375 1216.269531 423.023438 1216.5 452.613281 C 1216.792969 495.316406 1220.601562 549.449219 1226.589844 616.078125 C 1227.601562 627.214844 1228.703125 638.707031 1229.910156 650.550781 C 1232.023438 671.1875 1234.464844 692.96875 1237.332031 715.816406 " fill-opacity="1" fill-rule="nonzero"/><path fill="#1c3259" d="M 1228.652344 697.539062 C 1213.316406 615.925781 1203.757812 531.867188 1203.300781 448.832031 C 1203.128906 417.496094 1204.402344 385.949219 1209.730469 355.019531 C 1210.242188 352.042969 1205.683594 350.765625 1205.167969 353.765625 C 1195.492188 409.945312 1197.601562 468.097656 1201.816406 524.707031 C 1205.4375 573.285156 1211.421875 621.710938 1219.136719 669.800781 C 1220.691406 679.480469 1222.28125 689.160156 1224.085938 698.796875 C 1224.648438 701.785156 1229.210938 700.523438 1228.652344 697.539062 " fill-opacity="1" fill-rule="nonzero"/><path fill="#ffa59d" d="M 978.054688 142.730469 C 985.347656 146.589844 992.015625 151.636719 997.746094 157.585938 C 999.222656 159.0625 1000.621094 160.621094 1001.945312 162.222656 L 1001.960938 162.257812 C 1004.484375 165.292969 1006.769531 168.539062 1008.808594 171.90625 C 1015.910156 157.988281 1025.429688 144.898438 1036.21875 133.644531 C 1016.878906 127.183594 999.984375 112.878906 991.257812 94.46875 C 990.960938 103.054688 989.8125 111.332031 988.316406 119.785156 C 987.972656 121.609375 987.558594 123.382812 987.023438 125.085938 C 985.125 131.261719 982.039062 136.902344 978.296875 142.347656 C 978.230469 142.46875 978.121094 142.609375 978.054688 142.730469 " fill-opacity="1" fill-rule="nonzero"/><path fill="#f17785" d="M 978.054688 142.730469 C 985.347656 146.589844 992.015625 151.636719 997.746094 157.585938 C 1007.953125 131.84375 996.875 114.3125 996.875 114.3125 L 987.023438 125.085938 C 985.125 131.261719 982.039062 136.902344 978.296875 142.347656 C 978.230469 142.46875 978.121094 142.609375 978.054688 142.730469 " fill-opacity="1" fill-rule="nonzero"/><path fill="#ffa59d" d="M 985.941406 147.527344 L 985.800781 147.765625 C 982.6875 152.824219 977.71875 157.9375 971.84375 157.085938 C 966.542969 156.332031 963.230469 151.085938 960.792969 146.3125 C 959.972656 144.722656 959.175781 143.121094 958.40625 141.515625 C 957.957031 140.621094 957.539062 139.738281 957.121094 138.839844 L 957.109375 138.835938 C 950.828125 125.636719 945.539062 111.949219 941.339844 97.9375 C 940.972656 96.734375 940.617188 95.539062 940.265625 94.328125 C 953.8125 85.007812 965.15625 77.929688 980.246094 71.371094 C 986.929688 79.339844 992.527344 90.703125 995.242188 101.675781 C 996.09375 105.085938 996.652344 108.464844 996.886719 111.703125 C 996.953125 112.660156 996.988281 113.597656 997.003906 114.53125 C 997.035156 116.488281 996.929688 118.382812 996.722656 120.230469 C 995.652344 129.984375 991.472656 138.535156 985.941406 147.527344 " fill-opacity="1" fill-rule="nonzero"/><path fill="#86472f" d="M 981.058594 99.269531 C 980.703125 96.976562 982.804688 94.777344 985.117188 94.566406 C 987.429688 94.355469 989.671875 95.777344 990.957031 97.710938 C 992.238281 99.640625 992.707031 102.007812 992.871094 104.320312 C 993.011719 106.242188 992.949219 108.226562 992.199219 110 C 991.449219 111.773438 989.90625 113.300781 988.003906 113.597656 C 993.773438 120.785156 1004.667969 124.421875 1013.390625 121.449219 C 1005.824219 115.550781 1003.367188 105.761719 1001.933594 96.273438 C 1000.5 86.789062 999.855469 76.820312 995 68.539062 C 993.125 65.339844 990.492188 62.375 986.996094 61.132812 C 983.496094 59.894531 979.050781 60.855469 977.121094 64.027344 C 974.730469 59.148438 968.179688 57.046875 962.75 57.359375 C 957.324219 57.667969 952.261719 60.066406 947.363281 62.417969 C 937.84375 66.988281 928.332031 71.5625 918.8125 76.128906 C 920.652344 81.355469 922.226562 85.738281 925.558594 90.15625 C 928.898438 94.574219 933.976562 98.042969 939.511719 98.054688 C 944.335938 98.0625 948.753906 95.539062 952.902344 93.089844 C 958.207031 89.964844 963.511719 86.832031 968.8125 83.707031 C 969.714844 90.214844 975.089844 96.523438 981.058594 99.269531 " fill-opacity="1" fill-rule="nonzero"/><path fill="#b0d6ce" d="M 1034.617188 205.78125 C 1060.398438 239.101562 1077.089844 279.386719 1082.421875 321.175781 C 1087.761719 362.96875 1081.730469 406.152344 1065.152344 444.882812 C 1084.398438 453.574219 1107.195312 455.425781 1127 448.105469 C 1144.75 385.199219 1134.949219 315.367188 1104.027344 257.785156 C 1096.695312 244.128906 1088.011719 231.023438 1076.6875 220.429688 C 1065.371094 209.851562 1049.96875 207.914062 1034.617188 205.78125 " fill-opacity="1" fill-rule="nonzero"/><path fill="#e1efed" d="M 1241.777344 424.25 C 1198.816406 448.730469 1149.023438 463.40625 1099.589844 461.992188 C 1115.507812 423.078125 1119.464844 380.710938 1111.230469 339.472656 C 1106.710938 316.78125 1098.417969 294.851562 1086.945312 274.730469 C 1086.007812 273.085938 1085.039062 271.449219 1084.058594 269.832031 C 1083.640625 269.15625 1083.222656 268.476562 1082.800781 267.796875 C 1081.386719 265.53125 1079.925781 263.28125 1078.421875 261.054688 C 1078.109375 260.578125 1077.789062 260.097656 1077.441406 259.621094 C 1077.238281 259.320312 1077.039062 259.019531 1076.820312 258.710938 C 1075.664062 257.023438 1074.480469 255.359375 1073.28125 253.730469 C 1069.742188 248.917969 1066.015625 244.25 1062.085938 239.761719 C 1061.910156 239.558594 1061.742188 239.375 1061.566406 239.171875 C 1060.582031 238.042969 1059.601562 236.945312 1058.589844 235.847656 C 1056.679688 233.78125 1054.75 231.761719 1052.785156 229.75 C 1033.8125 210.667969 1009.964844 192.917969 1004.96875 166.484375 C 1004.910156 166.136719 1004.851562 165.789062 1004.792969 165.429688 C 1002.382812 149.351562 1013.070312 134.171875 1028.890625 130.402344 C 1054.808594 124.222656 1083.652344 129.347656 1107.464844 142.132812 C 1138.855469 158.988281 1162.574219 187.371094 1181.410156 217.621094 C 1219.824219 279.296875 1240.941406 351.605469 1241.777344 424.25 " fill-opacity="1" fill-rule="nonzero"/><path fill="#b0d6ce" d="M 1077.441406 259.621094 C 1077.238281 259.320312 1077.039062 259.019531 1076.820312 258.710938 C 1075.664062 257.023438 1074.480469 255.359375 1073.28125 253.730469 C 1069.742188 248.917969 1066.015625 244.25 1062.085938 239.761719 C 1061.910156 239.558594 1061.742188 239.375 1061.566406 239.171875 L 1076.691406 220.4375 C 1076.691406 220.4375 1079.984375 235.039062 1077.441406 259.621094 " fill-opacity="1" fill-rule="nonzero"/><path fill="#e1efed" d="M 1005.941406 158.671875 C 1005.941406 158.671875 1021.5 229.886719 1005.941406 276.5625 L 913.671875 292.554688 C 913.671875 292.554688 910.964844 305.398438 913.671875 313.347656 L 1033.679688 313.347656 C 1033.679688 313.347656 1076.222656 264.8125 1077.953125 207.769531 C 1077.953125 207.769531 1060.746094 159.847656 1005.941406 158.671875 " fill-opacity="1" fill-rule="nonzero"/><path fill="#b0d6ce" d="M 1013.582031 272.082031 C 1004.628906 273.914062 995.789062 276.167969 987.050781 278.839844 C 985.054688 279.445312 985.90625 282.585938 987.914062 281.96875 C 996.65625 279.296875 1005.496094 277.050781 1014.445312 275.214844 C 1016.496094 274.796875 1015.625 271.664062 1013.582031 272.082031 " fill-opacity="1" fill-rule="nonzero"/><path fill="#b0d6ce" d="M 1179.316406 321.84375 C 1165.070312 317.691406 1151.023438 312.980469 1137.15625 307.695312 C 1133.996094 306.492188 1132.628906 311.566406 1135.765625 312.757812 C 1149.625 318.042969 1163.671875 322.753906 1177.917969 326.90625 C 1181.167969 327.851562 1182.554688 322.789062 1179.316406 321.84375 " fill-opacity="1" fill-rule="nonzero"/><path fill="#ffa59d" d="M 950.414062 123.667969 L 951.796875 139.945312 L 964.726562 137.25 Z M 950.414062 123.667969 " fill-opacity="1" fill-rule="nonzero"/><path fill="#f17785" d="M 961.402344 137.9375 L 958.40625 141.515625 C 957.957031 140.621094 957.539062 139.738281 957.121094 138.839844 L 961.402344 137.9375 " fill-opacity="1" fill-rule="nonzero"/><path fill="#16162b" d="M 1186.292969 755.214844 C 1186.144531 755.335938 1185.996094 755.394531 1185.816406 755.453125 C 1171.949219 760.015625 1107.574219 766.578125 1106.535156 759.597656 C 1105.902344 755.421875 1124.875 748.382812 1139.105469 741.640625 C 1143.820312 739.40625 1146.234375 735.980469 1148.085938 732.101562 C 1156.199219 735.765625 1164.191406 739.703125 1171.738281 744.390625 C 1176.835938 747.578125 1181.789062 751.160156 1186.292969 755.214844 " fill-opacity="1" fill-rule="nonzero"/><path fill="#302323" d="M 341.738281 36.550781 L 341.707031 36.511719 C 342.140625 35.632812 351.558594 14.785156 321.996094 5.984375 C 302.0625 0.046875 301.679688 18.558594 284.777344 32.851562 C 274.367188 41.65625 272.601562 40.273438 260.746094 49.207031 C 237.746094 66.519531 259.597656 90.398438 248.417969 93.296875 C 237.242188 96.199219 227.074219 104.855469 239.691406 122.257812 C 252.308594 139.652344 279.402344 171.988281 325.574219 166.65625 C 371.742188 161.320312 392.347656 114.476562 381.121094 105.292969 C 369.894531 96.101562 360.761719 103.808594 363.109375 92.191406 C 365.460938 80.578125 389.394531 42.503906 341.738281 36.550781 " fill-opacity="1" fill-rule="nonzero"/><path fill="#bed0db" d="M 329.972656 801.707031 C 233.621094 801.707031 155.511719 799.226562 155.511719 796.167969 C 155.511719 793.105469 233.621094 790.628906 329.972656 790.628906 C 426.320312 790.628906 504.429688 793.105469 504.429688 796.167969 C 504.429688 799.226562 426.320312 801.707031 329.972656 801.707031 " fill-opacity="1" fill-rule="nonzero"/><path fill="#c3ddd9" d="M 469.910156 590.316406 C 469.910156 590.316406 347.234375 633.785156 209.019531 590.316406 L 351.347656 360.332031 C 351.347656 360.332031 461.152344 499.546875 469.910156 590.316406 " fill-opacity="1" fill-rule="nonzero"/><g clip-path="url(#1187f0372b)"><path fill="#16162b" d="M 233.53125 754.769531 C 233.429688 754.070312 248.996094 714.21875 248.960938 713.152344 C 248.789062 708.574219 241.902344 707.441406 236.207031 716.824219 C 224.980469 735.324219 213.363281 723.152344 212.976562 731.058594 C 211.480469 761.777344 202.898438 786.433594 210.960938 797.371094 C 216.574219 804.996094 235.621094 810.414062 249.535156 810.039062 C 263.457031 809.664062 255.90625 805.6875 242.167969 780.101562 C 237.027344 770.53125 234.585938 762.394531 233.53125 754.769531 " fill-opacity="1" fill-rule="nonzero"/></g><path fill="#16162b" d="M 382.910156 770.929688 C 384.195312 755.390625 387.703125 739.304688 393.042969 725.523438 C 397.074219 727.636719 401.988281 728.363281 406.542969 727.535156 C 405.664062 735.5 405.210938 743.636719 407.035156 751.488281 C 408.859375 759.335938 413.199219 766.949219 420.339844 771.574219 C 424.695312 774.394531 428.121094 776.386719 433.25 777.855469 C 433.394531 777.894531 433.546875 777.957031 433.710938 778.035156 C 441.496094 781.167969 451.765625 782.105469 460.339844 789.207031 C 462.59375 791.074219 460.832031 794.882812 457.925781 795.25 C 453.871094 795.765625 449.691406 796.144531 445.4375 796.394531 C 424.167969 798.183594 403.277344 796.152344 382.472656 790.257812 C 382.183594 784.066406 382.339844 777.550781 382.910156 770.929688 " fill-opacity="1" fill-rule="nonzero"/><path fill="#374d88" d="M 202.222656 738.996094 C 210.316406 747.203125 225.164062 753.988281 238.632812 753.988281 C 304.863281 606.613281 345.183594 497.648438 358.941406 406.027344 C 382.09375 493.605469 384.71875 583.164062 381.109375 688.789062 C 380.269531 712.660156 379.0625 735.421875 377.652344 756.347656 C 384.207031 759.683594 391.84375 761.609375 400.023438 761.609375 C 403.839844 761.609375 407.539062 761.1875 411.089844 760.40625 C 413.617188 759.867188 416.023438 759.113281 418.335938 758.183594 C 422.996094 737.855469 427.671875 716.878906 429.945312 695.253906 C 445.535156 546.609375 432.125 432.25 429.535156 402.773438 C 421.914062 316.109375 389.023438 267.457031 387.695312 265.363281 L 387.695312 265.332031 L 387.664062 265.210938 L 353.355469 264.433594 L 337.179688 264.070312 L 326.925781 263.832031 C 326.925781 263.832031 310.480469 281.582031 302.175781 304.980469 C 296.511719 320.929688 290.3125 341.253906 289.277344 358.210938 C 281.976562 478.035156 212.722656 719.753906 202.222656 738.996094 " fill-opacity="1" fill-rule="nonzero"/><path fill="#ffa59d" d="M 348.679688 134.867188 C 342.496094 139.34375 334.820312 141.625 327.234375 141.289062 C 319.617188 140.988281 313.097656 137.726562 307.339844 132.792969 C 308.101562 127.433594 308.621094 122.039062 308.804688 116.648438 C 308.863281 115.402344 308.894531 114.152344 308.925781 112.902344 L 308.925781 112.777344 C 308.960938 111.351562 308.960938 109.917969 308.925781 108.484375 C 308.925781 107.660156 308.894531 106.84375 308.863281 106.019531 C 308.742188 100.414062 308.289062 94.777344 307.558594 89.238281 C 307.527344 88.839844 307.464844 88.476562 307.40625 88.105469 C 307.160156 86.28125 306.886719 84.453125 306.546875 82.625 C 305.484375 76.535156 304.054688 70.472656 302.285156 64.5625 C 305.511719 65.71875 308.742188 66.910156 311.910156 68.25 L 312.152344 68.371094 C 319.132812 71.296875 325.742188 74.859375 331.375 79.886719 C 331.835938 83.628906 332.382812 87.320312 333.082031 91.003906 C 333.207031 91.613281 333.328125 92.21875 333.449219 92.800781 C 333.875 94.964844 334.363281 97.09375 334.882812 99.230469 C 334.914062 99.378906 334.972656 99.5625 335.003906 99.714844 C 335.398438 101.328125 335.824219 102.941406 336.28125 104.527344 C 336.617188 105.742188 336.949219 106.90625 337.347656 108.089844 L 337.410156 108.242188 C 340.269531 117.441406 344.019531 126.339844 348.679688 134.867188 " fill-opacity="1" fill-rule="nonzero"/><path fill="#668cd9" d="M 279.617188 136.210938 L 295.113281 183.695312 C 295.113281 183.695312 300.214844 198.808594 304.972656 205.480469 C 317.324219 223.890625 323.34375 242.683594 326.910156 263.816406 C 337.460938 266.617188 349.085938 268.113281 361.359375 267.996094 C 370.5625 267.960938 379.386719 267 387.632812 265.3125 L 387.671875 265.3125 C 387.863281 263.089844 388.054688 260.9375 388.246094 258.792969 C 390.585938 229.21875 389.515625 205.902344 386.519531 187.535156 C 378.65625 139.320312 357.484375 125.324219 350.117188 121.832031 C 349.46875 121.5625 348.851562 121.292969 348.164062 121.027344 L 348.050781 120.988281 C 347.933594 120.949219 347.78125 120.875 347.664062 120.832031 L 347.550781 120.832031 L 347.550781 120.796875 L 347.320312 120.757812 C 344.746094 120.261719 342.140625 119.992188 339.496094 119.914062 C 329.714844 119.609375 321.3125 117.113281 311.570312 117.6875 C 311.378906 117.6875 311.183594 117.6875 310.996094 117.730469 C 309.117188 117.882812 307.273438 118.226562 305.507812 118.761719 C 302.441406 119.644531 299.566406 121.0625 296.917969 122.90625 C 292.625 125.898438 286.445312 130.460938 279.617188 136.210938 " fill-opacity="1" fill-rule="nonzero"/><path fill="#dd6478" d="M 333.296875 93.472656 C 333.753906 95.480469 318.003906 101.511719 308.863281 106.019531 C 308.742188 100.414062 308.289062 94.777344 307.558594 89.238281 C 307.527344 88.839844 307.464844 88.476562 307.40625 88.105469 C 307.160156 86.28125 306.886719 84.453125 306.546875 82.625 C 305.484375 76.535156 304.054688 70.472656 302.285156 64.5625 C 305.511719 65.71875 308.742188 66.910156 311.910156 68.25 L 312.152344 68.371094 C 318.976562 71.628906 325.4375 75.441406 331.042969 80.371094 C 331.53125 84.152344 332.136719 87.894531 332.898438 91.644531 C 333.019531 92.25 333.140625 92.859375 333.296875 93.472656 " fill-opacity="1" fill-rule="nonzero"/><path fill="#ffa59d" d="M 301.136719 64.605469 C 301.519531 66.753906 303.09375 71.089844 303.78125 73.160156 C 304.589844 75.503906 305.429688 77.882812 306.007812 80.296875 C 306.277344 81.214844 306.433594 82.097656 306.542969 83.058594 C 323.265625 106.414062 360.550781 97.171875 348.585938 71.550781 C 345.019531 63.839844 337.386719 48.996094 332.78125 34.808594 C 330.597656 36.878906 327.21875 38.257812 325.535156 38.835938 C 324.878906 39.066406 324.457031 39.183594 324.457031 39.183594 C 322.925781 39.679688 321.3125 40.0625 319.816406 40.5625 C 314.597656 42.328125 309.921875 45.660156 306.585938 50.074219 C 303.398438 54.253906 301.480469 59.355469 301.136719 64.605469 " fill-opacity="1" fill-rule="nonzero"/><path fill="#ffa59d" d="M 303.207031 69.191406 C 302.460938 67.617188 301.300781 65.886719 299.628906 65.585938 C 297.980469 65.285156 296.6875 66.570312 296.042969 67.96875 C 294.378906 71.542969 295.417969 76.480469 298.515625 79.765625 C 301.617188 83.042969 306.566406 84.441406 310.34375 83.097656 C 308.234375 78.5 305.359375 73.773438 303.207031 69.191406 " fill-opacity="1" fill-rule="nonzero"/><path fill="#dd6478" d="M 333.757812 69.222656 C 333.746094 69.457031 334.398438 69.550781 335.21875 69.25 C 336.078125 68.976562 337.152344 68.285156 337.953125 66.984375 L 338.003906 66.902344 C 338.464844 66.078125 338.652344 65.28125 338.683594 64.5625 C 338.753906 63.527344 338.476562 62.6875 338.195312 62.3125 C 338.039062 62.09375 337.914062 62.023438 337.789062 62.082031 L 337.628906 62.199219 C 337.488281 62.472656 337.417969 63.125 337.234375 63.898438 C 337.074219 64.484375 336.878906 65.132812 336.527344 65.773438 L 336.414062 66.003906 C 335.878906 66.992188 335.125 67.703125 334.546875 68.222656 C 334.039062 68.6875 333.683594 68.988281 333.757812 69.222656 " fill-opacity="1" fill-rule="nonzero"/><path fill="#1c3259" d="M 365.3125 352.316406 C 361.820312 381.59375 356.804688 410.628906 350.289062 439.382812 C 349.855469 441.292969 352.792969 442.109375 353.226562 440.195312 C 359.800781 411.175781 364.839844 381.863281 368.359375 352.316406 C 368.589844 350.375 365.542969 350.394531 365.3125 352.316406 " fill-opacity="1" fill-rule="nonzero"/><path fill="#1c3259" d="M 381.75 341.925781 C 378.863281 350.480469 373.300781 357.550781 365.683594 362.386719 C 364.035156 363.4375 365.5625 366.070312 367.222656 365.015625 C 375.527344 359.746094 381.546875 352.050781 384.683594 342.738281 C 385.316406 340.875 382.371094 340.074219 381.75 341.925781 " fill-opacity="1" fill-rule="nonzero"/><path fill="#e1efed" d="M 388.246094 258.792969 C 404.242188 327.484375 417.625 422.523438 416.019531 545.5625 C 416.019531 545.5625 449.617188 550.699219 469.910156 590.316406 L 384.871094 145.308594 C 364.960938 125.742188 348.085938 121.027344 348.050781 120.988281 C 347.933594 120.949219 347.398438 120.757812 347.320312 120.757812 C 344.746094 120.261719 344.234375 119.992188 341.589844 119.914062 C 341.589844 119.914062 366.304688 164.714844 388.246094 258.792969 " fill-opacity="1" fill-rule="nonzero"/><path fill="#1c3259" d="M 218.167969 739.160156 C 238.472656 674.671875 255.773438 609.261719 269.824219 543.152344 C 276.753906 510.570312 282.90625 477.816406 288.28125 444.96875 C 293.199219 414.957031 297.125 384.746094 303.304688 354.949219 C 309.746094 323.894531 318.855469 293.34375 334.074219 265.460938 C 333.03125 265.265625 331.988281 265.050781 330.949219 264.804688 C 303.863281 315 296.570312 372.632812 287.871094 428.351562 C 277.382812 495.550781 263.667969 562.265625 246.757812 628.160156 C 237.234375 665.175781 226.71875 701.902344 215.234375 738.355469 C 214.652344 740.222656 217.585938 741.023438 218.167969 739.160156 " fill-opacity="1" fill-rule="nonzero"/><path fill="#e1efed" d="M 209.039062 590.28125 C 238.574219 553.230469 295.269531 545.5625 295.269531 545.5625 C 318.015625 461.835938 324.804688 376.191406 324.804688 303.667969 C 324.804688 295.53125 324.726562 287.554688 324.574219 279.769531 C 322.617188 184.195312 308.804688 116.648438 308.804688 116.648438 C 273.171875 141.082031 287.90625 200 287.90625 200 C 292.507812 231.867188 290.089844 271.679688 283.796875 313.558594 C 281.808594 326.792969 279.429688 340.253906 276.777344 353.714844 C 253.921875 469.8125 209.921875 587.789062 209.039062 590.28125 " fill-opacity="1" fill-rule="nonzero"/><path fill="#ffffff" d="M 327.644531 74.0625 C 333.652344 74.175781 340.453125 72.320312 342.960938 70.863281 C 343.816406 70.363281 344.933594 70.921875 345.03125 71.851562 C 346.914062 89.265625 330.699219 82.945312 326.804688 76.105469 C 326.242188 75.121094 326.46875 74.039062 327.644531 74.0625 " fill-opacity="1" fill-rule="nonzero"/><path fill="#ffa59d" d="M 341.589844 119.914062 C 341.589844 119.914062 348.589844 161.699219 308.996094 117.605469 C 308.996094 117.605469 320.457031 109.277344 341.589844 119.914062 " fill-opacity="1" fill-rule="nonzero"/><path fill="#e1efed" d="M 348.050781 120.988281 C 360.925781 124.226562 372.625 126.488281 382.9375 134.847656 C 395.070312 144.6875 409.058594 182.5625 414.820312 197.078125 C 403.320312 201.210938 393.234375 206.398438 381.734375 210.53125 C 376.878906 186.378906 361.15625 141.84375 348.050781 120.988281 " fill-opacity="1" fill-rule="nonzero"/><path fill="#ffeef0" d="M 466.871094 254.710938 L 380.472656 254.710938 L 401.894531 131.769531 L 488.292969 131.769531 L 466.871094 254.710938 " fill-opacity="1" fill-rule="nonzero"/><path fill="#3e3e63" d="M 469.785156 258.550781 L 383.386719 258.550781 L 404.808594 135.613281 L 491.207031 135.613281 L 469.785156 258.550781 " fill-opacity="1" fill-rule="nonzero"/><path fill="#ffa59d" d="M 384.765625 201.875 C 384.765625 201.875 386.511719 191.007812 391.964844 188.746094 L 391.019531 199.425781 C 396.988281 197.398438 401.875 196.484375 407.847656 194.453125 C 409.074219 194.035156 410.390625 193.613281 411.648438 193.9375 C 413.210938 194.34375 414.292969 195.863281 414.644531 197.441406 C 414.996094 199.015625 414.753906 200.65625 414.472656 202.246094 C 413.785156 206.160156 412.894531 210.039062 411.804688 213.863281 C 411.066406 216.453125 410.125 219.183594 407.996094 220.839844 C 406.289062 222.164062 404.066406 222.601562 401.925781 222.910156 C 394.195312 224.015625 386.304688 223.988281 378.585938 222.828125 C 380.949219 216.097656 382.398438 208.605469 384.765625 201.875 " fill-opacity="1" fill-rule="nonzero"/><path fill="#e1efed" d="M 267.695312 170.277344 C 271.679688 198.8125 282.550781 226.6875 298.257812 251.148438 C 305.878906 262.90625 308.878906 273.554688 317.667969 267.992188 L 317.855469 267.898438 L 387.726562 225.261719 L 385.648438 208.988281 L 384.765625 201.875 L 322.972656 222.515625 C 309.539062 190.660156 302.242188 172.363281 305.367188 137.945312 C 301.921875 138.355469 298.984375 138.671875 296.332031 138.957031 L 308.785156 116.644531 C 307.644531 116.769531 306.539062 116.929688 305.429688 117.089844 C 280.496094 121.128906 264.21875 145.25 267.695312 170.277344 " fill-opacity="1" fill-rule="nonzero"/><path fill="#b0d6ce" d="M 344.15625 216.6875 C 337.210938 218.996094 330.257812 221.300781 323.308594 223.605469 C 323.199219 223.65625 323.089844 223.695312 322.980469 223.714844 C 319.277344 224.941406 315.574219 226.171875 311.875 227.398438 C 310.421875 227.878906 309.796875 225.59375 311.242188 225.113281 C 314.621094 223.988281 318 222.871094 321.378906 221.75 C 316.289062 209.894531 311.753906 197.78125 307.851562 185.488281 C 307.390625 184.027344 309.675781 183.40625 310.136719 184.859375 C 314.027344 197.109375 318.53125 209.195312 323.617188 221.007812 C 330.253906 218.804688 336.890625 216.605469 343.527344 214.402344 C 344.976562 213.921875 345.597656 216.210938 344.15625 216.6875 " fill-opacity="1" fill-rule="nonzero"/><path fill="#b0d6ce" d="M 289.746094 234.378906 C 295.210938 244.054688 301.664062 259.109375 311.53125 264.382812 C 317 267.300781 316.902344 266.183594 321.660156 263.460938 C 324.199219 262.003906 326.746094 260.550781 329.285156 259.09375 C 335.003906 255.816406 340.722656 252.539062 346.441406 249.265625 C 347.769531 248.503906 348.964844 250.554688 347.640625 251.308594 C 338.746094 256.40625 329.886719 261.578125 320.945312 266.597656 C 318.582031 267.929688 314.949219 270.824219 311.820312 270.117188 C 307.855469 269.222656 304.628906 262.613281 302.746094 259.871094 C 297.347656 252.003906 292.390625 243.878906 287.695312 235.570312 C 286.945312 234.242188 288.992188 233.046875 289.746094 234.378906 " fill-opacity="1" fill-rule="nonzero"/><path fill="#302323" d="M 310.375 50.332031 C 313.066406 47.515625 315.445312 45.277344 319.636719 45.519531 C 320.804688 45.59375 321.046875 47.054688 319.621094 47.625 C 315.695312 49.1875 314.429688 49.59375 311.378906 52.019531 C 310.019531 53.105469 308.800781 51.964844 310.375 50.332031 " fill-opacity="1" fill-rule="nonzero"/><path fill="#302323" d="M 336.589844 45.832031 C 334.828125 44.921875 332.835938 45.277344 331.125 45.671875 C 329.980469 45.933594 329.472656 47.210938 330.988281 47.445312 C 335.167969 48.074219 335.058594 47.59375 337.039062 48.195312 C 338.445312 48.621094 338.601562 46.871094 336.589844 45.832031 " fill-opacity="1" fill-rule="nonzero"/><path fill="#343256" d="M 318.5 54.699219 C 317.964844 54.433594 317.210938 54.84375 317.042969 55.386719 C 316.679688 56.53125 316.960938 57.847656 317.703125 58.785156 C 318.082031 59.269531 318.855469 59.296875 319.308594 58.902344 C 319.519531 58.722656 319.636719 58.488281 319.675781 58.242188 C 320.09375 57.042969 319.640625 55.265625 318.5 54.699219 " fill-opacity="1" fill-rule="nonzero"/><path fill="#343256" d="M 336.628906 51.371094 C 336.09375 51.101562 335.339844 51.515625 335.167969 52.050781 C 334.804688 53.199219 335.09375 54.519531 335.832031 55.457031 C 336.210938 55.941406 336.984375 55.960938 337.4375 55.574219 C 337.648438 55.394531 337.765625 55.160156 337.804688 54.90625 C 338.222656 53.714844 337.765625 51.933594 336.628906 51.371094 " fill-opacity="1" fill-rule="nonzero"/><path fill="#343256" d="M 310.640625 56.894531 C 310.640625 52.839844 313.9375 49.542969 317.992188 49.542969 C 322.050781 49.542969 325.347656 52.839844 325.347656 56.894531 C 325.347656 60.949219 322.050781 64.25 317.992188 64.25 C 313.9375 64.25 310.640625 60.949219 310.640625 56.894531 Z M 331.707031 47.609375 C 332.460938 45.976562 333.75 44.832031 335.335938 44.386719 C 335.808594 44.25 336.296875 44.183594 336.785156 44.183594 C 337.917969 44.183594 339.066406 44.542969 340.113281 45.238281 C 341.644531 46.253906 342.785156 47.867188 343.320312 49.773438 C 344.417969 53.679688 342.625 57.609375 339.324219 58.539062 C 337.742188 58.984375 336.042969 58.683594 334.542969 57.6875 C 333.011719 56.667969 331.875 55.0625 331.335938 53.152344 C 330.800781 51.242188 330.929688 49.273438 331.707031 47.609375 Z M 298.921875 68.34375 L 300.1875 68.527344 C 300.949219 63.09375 307.917969 60.574219 309.933594 59.953125 C 311.171875 63.207031 314.3125 65.527344 317.992188 65.527344 C 322.753906 65.527344 326.628906 61.65625 326.628906 56.894531 C 326.628906 55.980469 326.480469 55.09375 326.214844 54.265625 C 326.628906 53.265625 327.175781 52.632812 327.859375 52.417969 C 328.679688 52.152344 329.53125 52.511719 329.921875 52.714844 C 329.972656 52.976562 330.035156 53.238281 330.105469 53.5 C 330.726562 55.699219 332.050781 57.566406 333.835938 58.75 C 335.097656 59.59375 336.484375 60.019531 337.867188 60.019531 C 338.472656 60.019531 339.074219 59.941406 339.671875 59.773438 C 343.652344 58.652344 345.84375 54.011719 344.554688 49.425781 C 343.933594 47.226562 342.609375 45.359375 340.824219 44.171875 C 339.003906 42.964844 336.9375 42.605469 334.984375 43.15625 C 333.039062 43.699219 331.460938 45.09375 330.542969 47.070312 C 329.945312 48.359375 329.683594 49.796875 329.75 51.265625 C 329.128906 51.054688 328.316406 50.929688 327.480469 51.191406 C 326.714844 51.433594 326.078125 51.976562 325.570312 52.757812 C 324.101562 50.082031 321.257812 48.265625 317.992188 48.265625 C 313.234375 48.265625 309.359375 52.132812 309.359375 56.894531 C 309.359375 57.523438 309.433594 58.136719 309.558594 58.726562 C 307.324219 59.402344 299.796875 62.121094 298.921875 68.34375 " fill-opacity="1" fill-rule="nonzero"/><path fill="#ffa59d" d="M 301.980469 69.097656 C 301.472656 67.628906 300.59375 66.027344 299.0625 65.773438 C 297.550781 65.527344 296.191406 66.753906 295.417969 68.078125 C 293.429688 71.46875 293.804688 76.089844 296.316406 79.113281 C 298.832031 82.132812 303.300781 83.355469 307 82.027344 C 305.574219 77.742188 303.449219 73.359375 301.980469 69.097656 " fill-opacity="1" fill-rule="nonzero"/><path fill="#ffffff" d="M 302.015625 83.539062 C 302.015625 85.09375 303.277344 86.351562 304.828125 86.351562 C 306.382812 86.351562 307.640625 85.09375 307.640625 83.539062 C 307.640625 81.988281 306.382812 80.730469 304.828125 80.730469 C 303.277344 80.730469 302.015625 81.988281 302.015625 83.539062 " fill-opacity="1" fill-rule="nonzero"/><path fill="#f5fbfc" d="M 425.050781 741.597656 L 932.445312 739.734375 L 932.542969 760.8125 L 425.148438 762.679688 L 425.050781 741.597656 " fill-opacity="1" fill-rule="nonzero"/><path fill="#4092b8" d="M 822.578125 740.039062 L 932.445312 739.734375 L 932.542969 760.8125 L 822.675781 761.113281 L 822.578125 740.039062 " fill-opacity="1" fill-rule="nonzero"/><path fill="#e1efed" d="M 923.882812 756.605469 L 923.871094 754.09375 L 832.199219 754.304688 L 832.214844 756.820312 L 923.882812 756.605469 " fill-opacity="1" fill-rule="nonzero"/><path fill="#e1efed" d="M 923.863281 751.574219 L 923.847656 749.054688 L 832.179688 749.273438 L 832.191406 751.789062 L 923.863281 751.574219 " fill-opacity="1" fill-rule="nonzero"/><path fill="#e1efed" d="M 832.167969 746.753906 L 923.835938 746.539062 L 923.820312 744.023438 L 832.15625 744.234375 L 832.167969 746.753906 " fill-opacity="1" fill-rule="nonzero"/><path fill="#f3b773" d="M 701.953125 740.285156 L 702.050781 761.34375 L 680.992188 761.449219 L 680.890625 740.390625 L 701.953125 740.285156 " fill-opacity="1" fill-rule="nonzero"/><path fill="#f8f4c5" d="M 669.972656 740.4375 L 670.070312 761.496094 L 649.007812 761.597656 L 648.910156 740.542969 L 669.972656 740.4375 " fill-opacity="1" fill-rule="nonzero"/><path fill="#ffe800" d="M 637.988281 740.589844 L 638.09375 761.652344 L 617.03125 761.75 L 616.933594 740.695312 L 637.988281 740.589844 " fill-opacity="1" fill-rule="nonzero"/><path fill="#ffe245" d="M 606.011719 740.746094 L 606.113281 761.804688 L 585.050781 761.902344 L 584.949219 740.84375 L 606.011719 740.746094 " fill-opacity="1" fill-rule="nonzero"/><path fill="#fff200" d="M 574.03125 740.898438 L 574.128906 761.953125 L 553.074219 762.054688 L 552.96875 740.996094 L 574.03125 740.898438 " fill-opacity="1" fill-rule="nonzero"/><path fill="#87b1eb" d="M 542.050781 741.050781 L 542.148438 762.105469 L 521.089844 762.210938 L 520.992188 741.148438 L 542.050781 741.050781 " fill-opacity="1" fill-rule="nonzero"/><path fill="#faf6f0" d="M 510.070312 741.199219 L 510.171875 762.261719 L 489.109375 762.363281 L 489.011719 741.304688 L 510.070312 741.199219 " fill-opacity="1" fill-rule="nonzero"/><path fill="#f0f7f4" d="M 478.089844 741.351562 L 478.1875 762.410156 L 457.128906 762.515625 L 457.027344 741.457031 L 478.089844 741.351562 " fill-opacity="1" fill-rule="nonzero"/><path fill="#fcf1d2" d="M 446.109375 741.507812 L 446.210938 762.566406 L 425.148438 762.664062 L 425.050781 741.609375 L 446.109375 741.507812 " fill-opacity="1" fill-rule="nonzero"/></svg>